{"asset":{"version":"2.0","generator":"VECTARY"},"nodes":[{"translation":[0.2567922264912406,0.21181850162775198,0.7803098128790334],"scale":[1,1,1],"rotation":[-0.09533131391714467,0.18475853372509088,0.018009784859819133,0.9779835747352246],"name":"Camera","camera":0},{"translation":[0,0,0],"scale":[0.001,0.001,0.001],"rotation":[-0.7071067811865475,0,0,0.7071067811865476],"name":"Love Cube","children":[2,3]},{"translation":[0,3.011244912816519,0],"scale":[1,1,1],"rotation":[0,0,0,1],"name":"Box","mesh":0},{"translation":[0,-48.70976556680951,36.20924214028052],"scale":[0.12895603007274173,0.12895603007274173,0.12895603007274173],"rotation":[0,0,0,1],"name":"Heart Emoji","children":[4]},{"translation":[0,0,0],"scale":[1,1,1],"rotation":[0,0,0,1],"name":"Heart","mesh":1}],"cameras":[{"name":"Camera","type":"perspective","extras":{"targetDistance":0.8503176087826092},"perspective":{"aspectRatio":1.5995500562429696,"yfov":0.6108652381980153,"zfar":52.2772968634255,"znear":0.01254820764711254}}],"materials":[{"pbrMetallicRoughness":{"baseColorFactor":[1,0.5795466117825252,0.5795466117825252,1],"metallicRoughnessTexture":{"index":1,"extensions":{"KHR_texture_transform":{"offset":[0,0],"scale":[1,1],"rotation":0}},"texCoord":0},"metallicFactor":0,"roughnessFactor":0.51},"name":"Subsurface Textured","normalTexture":{"index":0,"scale":1,"extensions":{"KHR_texture_transform":{"offset":[0,0],"scale":[1,1],"rotation":0}},"texCoord":0},"emissiveFactor":[0,0,0],"extensions":{},"alphaMode":"OPAQUE","doubleSided":false},{"pbrMetallicRoughness":{"baseColorFactor":[1,0.19751643144034023,0.19751643144034023,1],"metallicFactor":0,"roughnessFactor":0.2},"name":"Island Paradise","emissiveFactor":[0,0,0],"extensions":{},"alphaMode":"OPAQUE","doubleSided":false}],"textures":[{"sampler":0,"source":0},{"sampler":0,"source":1}],"images":[{"uri":"Plastic_002_NormalMap.jpg","mimeType":"image/jpeg"},{"uri":"metallicTexture&Plastic_002_Roughness.jpg","mimeType":"image/jpeg"}],"samplers":[{"wrapS":10497,"wrapT":10497}],"meshes":[{"primitives":[{"mode":4,"attributes":{"POSITION":1,"NORMAL":2,"TEXCOORD_0":3},"material":0,"indices":0}]},{"primitives":[{"mode":4,"attributes":{"POSITION":5,"NORMAL":6},"material":1,"indices":4}]}],"accessors":[{"bufferView":0,"byteOffset":0,"componentType":5125,"count":2916,"type":"SCALAR"},{"bufferView":1,"byteOffset":0,"componentType":5126,"count":596,"max":[50,50,100],"min":[-50,-50,0],"type":"VEC3"},{"bufferView":2,"byteOffset":0,"componentType":5126,"count":596,"type":"VEC3"},{"bufferView":3,"byteOffset":0,"componentType":5126,"count":596,"type":"VEC2"},{"bufferView":4,"byteOffset":0,"componentType":5125,"count":15360,"type":"SCALAR"},{"bufferView":5,"byteOffset":0,"componentType":5126,"count":2562,"max":[107.6641845703125,33.356170654296875,195.34597778320312],"min":[-107.6641845703125,-33.356170654296875,-2.433420117156377e-14],"type":"VEC3"},{"bufferView":6,"byteOffset":0,"componentType":5126,"count":2562,"type":"VEC3"}],"bufferViews":[{"buffer":0,"byteOffset":0,"byteLength":11664,"target":34963},{"buffer":0,"byteOffset":11664,"byteLength":7152,"target":34962},{"buffer":0,"byteOffset":18816,"byteLength":7152,"target":34962},{"buffer":0,"byteOffset":25968,"byteLength":4768,"target":34962},{"buffer":0,"byteOffset":30736,"byteLength":61440,"target":34963},{"buffer":0,"byteOffset":92176,"byteLength":30744,"target":34962},{"buffer":0,"byteOffset":122920,"byteLength":30744,"target":34962}],"scene":0,"scenes":[{"nodes":[0,1],"name":"The love Block"}],"extensionsUsed":["KHR_texture_transform"],"buffers":[{"byteLength":153664,"uri":"Thelove Block.bin"}]}